<svg id="CIRCLE_OUTLINE_BLACK" xmlns="http://www.w3.org/2000/svg" viewBox="0 0 512 512"><ellipse cx="256" cy="256" rx="256.0944" ry="256" fill="#fff"/><path d="M198.481,314.39139c-6.0066-4.46599-13.2566-8.207-21.27361-10.48-8.0171-2.27299-16.8014-3.077-25.3907-2.12399-8.5895.952-16.984,3.662-24.3081,7.63699-7.3239,3.974-13.5776,9.214-18.4599,14.888-4.8956,5.66199-9.16067,12.617-12.0173,20.44501-2.85663,7.828-4.3048,16.52899-3.98652,25.16501.31811,8.63699,2.40268,17.20798,5.82743,24.80399,3.42493,7.59698,8.19019,14.21899,13.48939,19.50601,5.2865,5.29898,11.9087,10.064,19.5053,13.48898,7.5967,3.42502,16.1679,5.509,24.804,5.828,8.6363.31799,17.3375-1.13,25.1656-3.987,7.8281-2.85699,14.7834-7.12201,20.4454-12.017,5.674-4.88199,10.913-11.13599,14.888-18.45999,3.974-7.32401,6.68401-15.71899,7.63701-24.30801.95299-8.58899.14899-17.37399-2.12401-25.39099-2.27299-8.017-6.015-15.267-10.48-21.27402l14.75-14.75099,10.737,10.737h6.099l7.36-7.36v-6.09799l-10.737-10.737,15.588-15.588,15.588,15.588-10.737,10.737v6.09799l7.36,7.36h6.099l10.737-10.737,14.75,14.75099c-4.465,6.00702-8.207,13.25702-10.48,21.27402-2.27299,8.017-3.077,16.802-2.12401,25.39099.953,8.58902,3.66301,16.98401,7.63701,24.30801,3.97499,7.32401,9.214,13.578,14.888,18.45999,5.662,4.89499,12.617,9.16,20.44499,12.017,7.828,2.85699,16.53,4.30499,25.16602,3.987,8.63599-.319,17.207-2.40298,24.80399-5.828,7.59702-3.42499,14.21899-8.19,19.505-13.48898,5.29901-5.28702,10.065-11.90903,13.48999-19.50601,3.42401-7.59601,5.509-16.16699,5.827-24.80399.31802-8.63602-1.12997-17.33701-3.98599-25.16501-2.85699-7.828-7.12201-14.78302-12.01801-20.44501-4.88199-5.674-11.13599-10.914-18.45999-14.888-7.32401-3.97499-15.71799-6.685-24.30798-7.63699-8.58902-.953-17.37302-.149-25.39001,2.12399-8.017,2.27299-15.267,6.01401-21.274,10.48l-14.47699-14.5,10.73199-10.73099v-6.09801l-7.623-7.623h-6.099l-10.737,10.737-15.59401-15.58299,81.752-81.75201,33.09399,33.094v-34.433h34.43301l-33.09299-33.0938,33.09299-33.0934v-6.0983l-7.62299-7.623h-6.09802l-149.27899,149.2785L106.7212,107.5939h-6.09825l-7.62295,7.623v6.0983l33.0934,33.0934-33.0934,33.0938h34.4331v34.433l33.0932-33.094,81.75271,81.75201-15.59401,15.58299-10.737-10.737h-6.099l-7.623,7.623v6.09801l10.732,10.73099-14.477,14.5ZM331.144,390.12239c-3.366,6.905-2.66699,16.47299,1.66701,22.81601,3.98199,6.569,12.405,11.16199,20.08398,10.953,7.67902.20898,16.10202-4.384,20.08401-10.953,4.33398-6.34302,5.03299-15.91101,1.66699-22.81601l.83801-.90298c6.905,3.384,16.487,2.69897,22.84-1.634,6.57999-3.978,11.18399-12.41,10.97299-20.09702.211-7.686-4.39301-16.11798-10.97299-20.09698-6.353-4.332-15.935-5.01801-22.84-1.633l-.83801-.90302c3.366-6.905,2.66699-16.474-1.66699-22.81599-3.98199-6.569-12.405-11.16301-20.08401-10.953-7.67899-.21001-16.10199,4.384-20.08398,10.953-4.334,6.342-5.033,15.911-1.66701,22.81599l-.838.90302c-6.905-3.38501-16.48801-2.69901-22.84,1.633-6.58,3.979-11.18401,12.41098-10.974,20.09698-.21001,7.68701,4.394,16.11902,10.974,20.09702,6.35199,4.33298,15.935,5.01801,22.84,1.634l.838.90298ZM179.1857,412.9384c4.3342-6.34302,5.0334-15.91101,1.6671-22.81601l.8385-.90298c6.9043,3.384,16.4867,2.69897,22.8397-1.634,6.579-3.978,11.184-12.41,10.973-20.09702.211-7.686-4.394-16.11798-10.973-20.09698-6.353-4.332-15.9354-5.01801-22.8397-1.633l-.8385-.90302c3.3663-6.905,2.6671-16.474-1.6671-22.81599-3.982-6.569-12.4049-11.16301-20.0839-10.953-7.6788-.21001-16.1017,4.384-20.0837,10.953-4.3342,6.342-5.0334,15.911-1.6671,22.81599l-.8384.90302c-6.9044-3.38501-16.4871-2.69901-22.8395,1.633-6.5799,3.979-11.18406,12.41098-10.97376,20.09698-.2103,7.68701,4.39386,16.11902,10.97376,20.09702,6.3524,4.33298,15.9351,5.01801,22.8395,1.634l.8384.90298c-3.3663,6.905-2.6671,16.47299,1.6671,22.81601,3.982,6.569,12.4049,11.16199,20.0837,10.953,7.679.20898,16.1019-4.384,20.0839-10.953Z" fill="#d30" fill-rule="evenodd"/><path d="M255.89101,107.5938l39.187-39.1864,19.40399,19.4047v65.41l-53.73999,53.7403h-9.70201l-53.73999-53.7403v-65.41l19.405-19.4047,39.186,39.1864ZM216.705,82.1287l34.33499,34.3354v63.0553l-34.33499-34.3347v-63.056ZM260.744,116.4641l34.33499-34.3354v63.056l-34.33499,34.3347v-63.0553Z" fill="#d30" fill-rule="evenodd"/></svg>