<svg xmlns="http://www.w3.org/2000/svg" viewBox="0 0 103 124">
  <path d="M96.33 20.61C88.38 7.54 72.84.38 57.26.02 49.83-.2 42.46 1.4 35.84 4.7c-3.85 1.93-7.38 4.45-10.46 7.48-2.08 2.04-3.93 4.32-5.5 6.78-5.42 8.45-7.54 18.56-5.98 28.48.11.76.25 1.5.4 2.25l.01.05c.2.91.42 1.82.67 2.72.04.11.07.23.11.34.25.9.53 1.79.83 2.67.06.16.12.33.18.49.3.87.63 1.73.98 2.58l.24.55c.37.85.75 1.7 1.16 2.53.06.13.13.26.19.39.42.84.85 1.67 1.31 2.48.09.16.18.32.27.47.47.82.96 1.63 1.47 2.42.1.16.21.32.32.48.52.8 1.06 1.58 1.62 2.35.13.18.26.36.39.54.58.77 1.18 1.53 1.8 2.27.14.17.28.34.42.5a83.6 83.6 0 0 0 2 2.2l.45.47c.7.7 1.41 1.39 2.14 2.06.16.14.31.29.47.43.75.67 1.52 1.32 2.31 1.95.16.13.33.25.49.38.8.62 1.62 1.22 2.46 1.8.18.12.36.24.54.36.86.57 1.73 1.12 2.62 1.64.19.11.38.22.57.33.89.51 1.8.99 2.72 1.45.21.1.42.21.63.31.93.44 1.87.86 2.82 1.25.22.09.44.18.66.27.95.38 1.91.73 2.88 1.06.23.08.46.16.69.23.98.32 1.97.61 2.97.88.24.06.48.13.72.19 1.01.26 2.03.49 3.05.7.25.05.5.1.75.15 1.03.2 2.07.36 3.11.5.26.03.52.07.78.1 1.05.13 2.11.23 3.17.3.27.02.54.04.81.05 1.07.06 2.14.08 3.21.08.27 0 .54-.01.81-.02 1.07-.03 2.14-.08 3.21-.16.27-.02.54-.04.81-.07 1.06-.08 2.12-.19 3.17-.32.26-.03.52-.07.78-.11 1.04-.14 2.08-.31 3.11-.51.25-.05.5-.1.75-.15 1.02-.21 2.04-.44 3.05-.7.24-.06.48-.13.72-.2 1-.27 1.99-.56 2.97-.88.23-.08.46-.15.69-.23.97-.33 1.93-.68 2.88-1.06.22-.09.44-.18.66-.27.95-.39 1.89-.81 2.82-1.25.21-.1.42-.21.63-.31.92-.46 1.83-.94 2.72-1.45.19-.11.38-.22.57-.33.89-.52 1.76-1.07 2.62-1.64.18-.12.36-.24.54-.36.84-.58 1.66-1.18 2.46-1.8.16-.13.33-.25.49-.38.79-.63 1.56-1.28 2.31-1.95.16-.14.31-.29.47-.43.73-.67 1.44-1.36 2.14-2.06l.45-.47c.69-.73 1.36-1.47 2-2.2.14-.16.28-.33.42-.5.62-.74 1.22-1.5 1.8-2.27.13-.18.26-.36.39-.54.56-.77 1.1-1.55 1.62-2.35.11-.16.21-.32.32-.48.51-.79 1-1.6 1.47-2.42.09-.15.18-.31.27-.47.46-.81.89-1.64 1.31-2.48.06-.13.13-.26.19-.39.41-.83.79-1.68 1.16-2.53l.24-.55c.35-.85.68-1.71.98-2.58.06-.16.12-.33.18-.49.3-.88.58-1.77.83-2.67.04-.11.07-.23.11-.34.25-.9.47-1.81.67-2.72l.01-.05c.15-.75.29-1.49.4-2.25 1.56-9.92-.56-20.03-5.98-28.48z" fill="#ff3e00"/>
  <path d="M45.41 106.97c-10.22 1.94-20.6-2.35-26.8-11.06a21.89 21.89 0 0 1-3.69-10.39c-.02-.3-.04-.6-.05-.9-.02-.53-.02-1.06 0-1.59.01-.3.03-.6.06-.9.05-.53.11-1.06.19-1.58.05-.3.1-.6.16-.89.09-.52.19-1.03.31-1.54.07-.3.15-.59.23-.89.13-.51.27-1.01.43-1.51.1-.29.2-.58.31-.87.17-.49.35-.98.55-1.46.12-.29.25-.57.38-.85.21-.48.44-.95.68-1.42.15-.28.3-.56.46-.84.25-.46.52-.91.8-1.36.18-.28.36-.55.55-.82.3-.44.61-.87.94-1.29.2-.27.41-.53.63-.79.35-.41.71-.81 1.08-1.21.23-.25.47-.5.71-.75.39-.38.79-.76 1.21-1.12.26-.23.53-.46.8-.68.43-.35.87-.69 1.32-1.02.28-.21.57-.41.86-.61.46-.31.93-.61 1.41-.9.3-.18.6-.36.91-.53.49-.28.99-.54 1.49-.79.32-.16.64-.32.96-.47.51-.24 1.03-.47 1.55-.68.33-.14.67-.27.1-.4.53-.2 1.07-.38 1.61-.55.35-.11.7-.21 1.05-.31.55-.16 1.1-.3 1.66-.43.36-.08.72-.16 1.08-.23.57-.12 1.14-.22 1.71-.31.37-.06.74-.11 1.11-.16.58-.08 1.16-.14 1.75-.19.38-.03.76-.06 1.14-.08.59-.04 1.19-.06 1.78-.06.39 0 .78.01 1.17.03.6.02 1.19.06 1.78.12.39.04.78.08 1.17.13.59.07 1.18.15 1.76.25.39.07.78.14 1.16.22.58.12 1.16.26 1.74.41.38.1.77.21 1.15.33.57.18 1.14.37 1.7.58.37.14.74.29 1.11.44.56.23 1.11.48 1.66.74.36.17.72.35 1.08.54.54.28 1.08.58 1.6.89.35.21.69.42 1.03.64.52.33 1.03.68 1.53 1.04.33.24.66.48.98.73.5.38.99.77 1.47 1.18.31.26.62.53.92.8.47.43.93.87 1.38 1.33.29.3.58.6.86.91.44.48.86.98 1.27 1.49.26.32.52.65.77.98.4.53.79 1.08 1.16 1.64.24.36.47.72.69 1.09.35.58.69 1.17 1.01 1.77.21.39.41.79.61 1.19.31.62.59 1.25.86 1.89.18.42.35.84.51 1.27.25.67.48 1.35.69 2.04.14.45.27.9.39 1.35.19.71.36 1.43.51 2.16.1.47.19.95.27 1.43.13.75.23 1.51.31 2.27.05.49.09.98.12 1.47.05.78.08 1.57.08 2.36 0 .49-.01.98-.04 1.47-.04.78-.1 1.56-.18 2.34-.05.49-.11.98-.18 1.47-.11.77-.24 1.53-.39 2.29-.1.48-.21.96-.33 1.44-.19.74-.39 1.48-.62 2.21-.15.47-.31.94-.48 1.4-.27.71-.56 1.42-.87 2.11-.21.46-.43.91-.66 1.36-.35.68-.72 1.35-1.11 2.01-.26.44-.53.88-.81 1.31-.43.65-.88 1.29-1.35 1.91-.31.42-.63.83-.96 1.24-.51.61-1.04 1.21-1.59 1.79-.36.39-.73.77-1.11 1.14-.58.57-1.19 1.13-1.81 1.67-.41.36-.83.71-1.26 1.05-.66.52-1.34 1.02-2.04 1.49-.46.31-.93.61-1.41.9-.73.45-1.48.87-2.24 1.27-.51.27-1.03.52-1.56.76-.8.37-1.62.71-2.45 1.02-.56.21-1.13.4-1.7.58-.87.28-1.75.53-2.64.75-.6.15-1.21.28-1.82.39-.93.18-1.87.33-2.81.44-.64.08-1.28.14-1.92.18-.98.07-1.97.11-2.95.11-.65 0-1.3-.02-1.95-.06-1-.06-1.99-.15-2.98-.28-.66-.08-1.31-.17-1.96-.28-1-.16-1.99-.35-2.98-.57-.66-.15-1.32-.31-1.97-.49-.99-.26-1.98-.55-2.95-.87-.65-.21-1.3-.44-1.94-.69-.97-.37-1.93-.77-2.88-1.2-.63-.28-1.25-.58-1.87-.89-.93-.47-1.85-.97-2.75-1.5-.6-.35-1.19-.72-1.78-1.1-.88-.57-1.74-1.17-2.59-1.8-.56-.42-1.12-.85-1.66-1.3-.82-.67-1.62-1.37-2.4-2.09-.52-.48-1.03-.97-1.53-1.48-.75-.76-1.47-1.54-2.17-2.35-.47-.54-.93-1.09-1.37-1.65-.67-.85-1.31-1.72-1.93-2.61-.41-.59-.81-1.19-1.19-1.8-.58-.92-1.12-1.86-1.64-2.82-.34-.63-.67-1.27-.98-1.92-.47-.99-.91-1.99-1.31-3.01-.27-.68-.52-1.36-.76-2.05-.36-1.05-.68-2.11-.96-3.19-.19-.72-.37-1.44-.52-2.17-.24-1.1-.44-2.21-.6-3.34-.11-.76-.2-1.52-.27-2.28-.11-1.14-.18-2.29-.2-3.45-.01-.78-.01-1.56.02-2.34.05-1.17.13-2.34.26-3.51.08-.79.18-1.57.3-2.35.18-1.16.4-2.31.67-3.45.18-.77.38-1.54.61-2.3.33-1.12.71-2.23 1.14-3.32.29-.75.6-1.49.94-2.22.48-1.06 1.01-2.1 1.59-3.12.4-.71.82-1.41 1.27-2.09.64-.98 1.33-1.94 2.07-2.87.51-.65 1.05-1.28 1.61-1.9.8-.88 1.65-1.73 2.54-2.54.62-.57 1.27-1.12 1.94-1.65.96-.76 1.96-1.48 3-2.15.72-.47 1.47-.92 2.24-1.34 1.1-.61 2.24-1.17 3.41-1.68.82-.36 1.66-.7 2.51-1 1.22-.44 2.47-.83 3.74-1.16.89-.24 1.8-.45 2.71-.63 1.31-.26 2.64-.47 3.99-.62.95-.11 1.91-.19 2.87-.23 1.38-.06 2.77-.07 4.15-.01 1 .04 1.99.11 2.98.21 1.42.14 2.83.34 4.23.6 1.03.19 2.05.41 3.06.67 1.44.36 2.87.78 4.27 1.28 1.05.37 2.08.78 3.1 1.23 1.44.64 2.85 1.36 4.22 2.15 1.04.6 2.06 1.24 3.05 1.93 1.41.98 2.76 2.04 4.05 3.18.98.86 1.92 1.77 2.81 2.73 1.27 1.36 2.46 2.8 3.56 4.31.84 1.15 1.61 2.35 2.32 3.59 1 1.76 1.89 3.58 2.66 5.47.59 1.44 1.09 2.92 1.51 4.43.59 2.12.98 4.29 1.17 6.5.14 1.58.16 3.18.08 4.78-.12 2.27-.45 4.51-.98 6.71-.38 1.57-.86 3.11-1.44 4.61-.82 2.12-1.84 4.17-3.04 6.12-1.08 1.76-2.32 3.43-3.7 4.99-1.96 2.22-4.22 4.17-6.71 5.8-3.53 2.32-7.52 3.95-11.73 4.79z" fill="#fff"/>
</svg>